<svg width="118" height="119" viewBox="0 0 118 119" fill="none" xmlns="http://www.w3.org/2000/svg">
<path d="M71.9472 1.50726C61.9387 -2.16486 50.1473 1.04285 43.3653 9.27784C36.4034 17.7311 35.3245 29.9427 41.0404 39.373C45.4926 46.7172 53.2801 51.2319 61.5943 51.8003C62.463 51.9729 63.3772 51.9983 64.332 51.846C65.6793 51.7952 67.0316 51.643 68.3764 51.3791C80.3729 49.024 89.0088 38.0762 89.1101 25.9458C89.0189 15.036 82.1735 5.26312 71.9447 1.5098L71.9472 1.50726ZM80.7604 38.3807H75.5839C76.5134 35.173 77.0072 31.8435 77.1819 28.5013H84.5693C84.116 32.0744 82.7864 35.475 80.7604 38.3807ZM62.6909 47.4709C62.0755 47.3872 61.4576 47.1613 60.8472 46.7857C59.3353 45.8544 58.1729 44.3698 57.2713 42.7634H69.1564C68.3713 44.1566 67.3988 45.4306 66.1706 46.3873C65.3703 47.0116 64.5498 47.3719 63.7267 47.4785C63.3823 47.4861 63.0353 47.4836 62.6909 47.4735V47.4709ZM44.8164 14.7238C44.9759 14.4599 45.1431 14.1985 45.3153 13.9422H50.6918C49.7573 17.2108 49.2331 20.6571 49.1039 24.1186H41.7926C42.0661 20.8347 43.0715 17.5991 44.8164 14.7213V14.7238ZM84.6503 24.1211H77.2174C77.0908 20.6977 76.6451 17.2489 75.7283 13.9448H80.611C80.7477 13.9448 80.8769 13.9295 81.001 13.9092C83.0168 16.8987 84.3084 20.3957 84.6503 24.1211ZM55.3896 38.3807C54.3361 35.2364 53.7233 31.8866 53.5283 28.5013H72.8083C72.6209 31.8562 72.0764 35.1755 71.0254 38.3807H55.3922H55.3896ZM55.258 13.9448H71.1698C72.203 17.2362 72.7045 20.6749 72.8437 24.1211H53.5029C53.6523 20.8855 54.174 17.6854 55.0427 14.668C55.1111 14.4269 55.1845 14.1858 55.2605 13.9422L55.258 13.9448ZM69.3894 9.5646H57.0358C57.6968 8.33126 58.497 7.18166 59.4797 6.20209C61.0903 4.59823 62.9745 3.89528 64.879 4.71751C66.8442 5.56511 68.3232 7.53187 69.3894 9.5646ZM74.1885 9.5646C73.7504 8.5495 73.2591 7.54963 72.6943 6.59544C74.3075 7.40244 75.7992 8.40232 77.1465 9.5646H74.1885ZM52.2898 9.44279C52.2721 9.4834 52.2569 9.524 52.2392 9.56207H49.228C50.5981 8.39724 52.1075 7.40752 53.7131 6.6132C53.1712 7.53948 52.7001 8.49621 52.2898 9.44025V9.44279ZM49.1495 28.5013C49.3445 31.8866 49.9068 35.2288 50.8261 38.3807H45.5989C43.5122 35.4369 42.2662 32.0186 41.861 28.5013H49.147H49.1495ZM52.4621 42.7609C52.8622 43.6161 53.3155 44.4738 53.817 45.3037C52.3886 44.6134 51.0312 43.7607 49.7675 42.7609H52.4621ZM73.991 42.7609H76.7058C75.47 43.7683 74.1151 44.6439 72.6563 45.3519C73.1578 44.5068 73.601 43.6339 73.9884 42.7609H73.991Z" fill="#00AB4E"/>
<path d="M117.782 113.131L107.204 80.6706C106.606 78.8358 104.897 77.5923 102.97 77.5923H15.0305C13.1032 77.5923 11.3938 78.8332 10.7961 80.6706L0.220329 113.131C0.0734429 113.578 0 114.044 0 114.516C0 116.981 1.99309 118.98 4.45469 118.98H113.548C116.007 118.98 118.003 116.983 118.003 114.516C118.003 114.047 117.929 113.578 117.782 113.131ZM70.8015 103.434H47.201C44.3849 103.434 44.3874 99.054 47.201 99.054H70.8015C73.6177 99.054 73.6151 103.434 70.8015 103.434Z" fill="#3D6CAE"/>
<path d="M105.77 47.1394C105.77 36.3109 105.849 25.4798 105.77 14.6512C105.745 11.2684 103.719 8.67226 100.464 8.12664C100.221 8.06828 99.963 8.03275 99.6794 8.03275H81.7086C83.1927 9.91322 84.4488 11.9739 85.439 14.1639H99.6515C99.654 14.2299 99.6464 14.2959 99.6515 14.3593C99.687 14.7857 99.6515 15.2323 99.6515 15.6612V64.8986C99.6515 65.9619 99.7655 67.0963 99.6515 68.1545C99.6464 68.2129 99.6338 68.2433 99.6262 68.2611C99.4692 68.2763 99.2944 68.2611 99.1399 68.2585C98.0408 68.2408 96.9392 68.2585 95.8401 68.2585H21.7058C20.7561 68.2585 19.6494 68.0987 18.7123 68.2585C18.6718 68.2662 18.5199 68.2636 18.4262 68.2636C18.5047 68.2357 18.3704 68.0987 18.3502 68.2002C18.3502 68.1469 18.3552 68.0936 18.3502 68.0403C18.2666 66.8247 18.3502 65.5736 18.3502 64.3555V15.3643C18.3502 15.0039 18.3071 14.6131 18.3502 14.2528C18.3552 14.202 18.3654 14.1741 18.373 14.1614C18.9479 14.065 19.6342 14.1665 20.209 14.1665H32.9527C33.9125 11.9891 35.1408 9.93352 36.6197 8.03528H22.7795C19.3531 8.03528 15.3643 7.46937 13.194 10.8547C12.2063 12.3951 12.2342 14.0497 12.2342 15.7703V59.7723C12.2342 62.8176 11.9201 66.0482 12.3127 69.0757C12.7457 72.4204 15.5897 74.3593 18.7883 74.3897C19.89 74.3999 20.9941 74.3897 22.0983 74.3897H76.1396C83.9575 74.3897 91.8387 74.6841 99.654 74.3897C103.222 74.2552 105.719 71.5525 105.78 68.0175C105.803 66.7156 105.78 65.4137 105.78 64.1119V47.1369L105.77 47.1394ZM99.6642 14.1665H99.6794C99.7022 14.1665 99.7199 14.1639 99.7427 14.1639C99.7477 14.1944 99.7503 14.2299 99.7477 14.2731C99.7477 14.2807 99.6895 14.2071 99.6642 14.1665Z" fill="#3D6CAE"/>
</svg>
