<svg width="132" height="119" viewBox="0 0 132 119" fill="none" xmlns="http://www.w3.org/2000/svg">
<g clip-path="url(#clip0_8920_157)">
<path d="M127.778 43.9579C127.664 42.8818 126.683 42.1116 125.61 42.254L111.539 44.103C110.489 44.2401 109.746 45.1976 109.876 46.2473L114.609 84.4106C114.73 85.397 115.584 86.1277 116.578 86.096L130.128 85.6951C131.249 85.6608 132.106 84.6823 131.99 83.5692L127.778 43.9579Z" fill="#3D6CAE"/>
<path d="M66.0003 12.9031C66.997 12.9031 67.9779 12.9717 68.943 13.0903V2.93563C68.943 1.31352 67.6263 0 66.0003 0C64.3743 0 63.0576 1.31352 63.0576 2.93563V13.0903C64.0226 12.9717 65.0035 12.9031 66.0003 12.9031Z" fill="#00AB4E"/>
<path d="M82.3004 19.373V8.12899C82.3004 6.50688 80.9837 5.19336 79.3577 5.19336C77.7317 5.19336 76.415 6.50688 76.415 8.12899V15.3032C78.583 16.3609 80.5633 17.7404 82.3004 19.373Z" fill="#00AB4E"/>
<path d="M55.5865 15.3032V8.12899C55.5865 6.50688 54.2699 5.19336 52.6438 5.19336C51.0178 5.19336 49.7012 6.50688 49.7012 8.12899V19.373C51.4382 17.7404 53.4185 16.3609 55.5865 15.3032Z" fill="#00AB4E"/>
<path d="M66.0005 16.2344C54.7057 16.2344 45.5498 25.3683 45.5498 36.6361C45.5498 47.9039 54.7057 57.0378 66.0005 57.0378C77.2953 57.0378 86.4511 47.9039 86.4511 36.6361C86.4511 25.3683 77.2953 16.2344 66.0005 16.2344ZM75.0612 34.257C74.7016 34.621 74.342 34.985 73.9798 35.3463C72.412 36.9289 70.8441 38.5114 69.2763 40.094C68.2875 41.0936 67.2986 42.0906 66.3072 43.0903C65.2073 44.2007 63.3407 44.1743 62.2408 43.0903C62.0558 42.9083 61.8707 42.7263 61.6856 42.5443C60.3954 41.2703 59.1025 39.999 57.8123 38.7251C57.2597 38.1791 57.0032 37.4538 56.9689 36.6968C56.9345 35.9319 57.3073 35.2144 57.8123 34.6685C58.2988 34.141 59.1395 33.8271 59.8454 33.8271C60.5884 33.8271 61.3525 34.1489 61.8786 34.6685C62.0637 34.8505 62.2488 35.0325 62.4338 35.2144C63.0393 35.8105 63.6447 36.4093 64.2502 37.0054C65.5087 35.7367 66.7672 34.4654 68.0257 33.1967C69.0145 32.197 70.0034 31.2 70.9948 30.2004C71.5421 29.6491 72.2692 29.3933 73.028 29.359C73.7947 29.3247 74.5139 29.6966 75.0612 30.2004C75.5899 30.6857 75.9046 31.5245 75.9046 32.2287C75.9046 32.9699 75.582 33.7321 75.0612 34.257Z" fill="#00AB4E"/>
<path d="M2.01731 91.1656C4.0822 91.287 6.14445 91.4083 8.20935 91.5296C10.6021 91.6694 13.3835 92.2259 15.5779 91.0126C16.4028 90.5563 17.0453 89.9286 17.5344 89.1954C21.4606 92.7376 25.3842 96.2799 29.3104 99.8222C34.7489 104.731 40.1875 109.637 45.626 114.545C47.5508 116.283 49.7135 117.636 52.2146 118.393C56.1594 119.591 60.4451 119.045 63.6919 116.555C65.6272 117.958 68.0067 118.715 70.4233 118.478C72.2714 118.296 74.0507 117.684 75.3515 116.299C76.2557 115.336 76.8771 114.113 77.1177 112.815C80.1053 113.844 83.6904 113.53 85.9801 111.317C86.9451 110.386 87.5452 109.238 87.8176 108.03C90.2658 108.79 92.9732 108.51 95.009 106.809C97.3489 104.857 97.9649 101.537 96.7249 98.8067C96.0904 97.4088 94.8319 96.3274 93.7717 95.2407C92.0346 93.4603 90.2976 91.68 88.5605 89.9022C83.7592 84.9858 78.9605 80.0667 74.1591 75.1502C71.1001 72.0168 68.1098 68.7963 64.9742 65.7393C64.9239 65.6892 64.8763 65.6391 64.8261 65.5863C63.0097 63.7268 60.157 66.5754 61.9707 68.4349C64.3634 70.8879 66.7588 73.3408 69.1515 75.7911C73.7943 80.5493 78.4396 85.3075 83.0823 90.0631C86.1704 93.2256 89.2559 96.3881 92.3439 99.5532C92.8489 100.07 93.227 100.603 93.3328 101.334C93.3777 101.645 93.3566 102.006 93.2561 102.381C93.1451 102.792 92.9494 103.169 92.7167 103.433C92.5951 103.573 92.3096 103.837 92.2699 103.868C92.2858 103.855 91.7411 104.182 91.7623 104.172C91.7121 104.195 91.334 104.303 91.1489 104.359C91.1198 104.367 91.104 104.372 91.0802 104.38C90.9109 104.398 90.7417 104.414 90.5725 104.42C89.0814 104.462 87.9577 103.763 86.9451 102.845C86.6675 102.391 86.3449 101.964 85.9615 101.574C83.5609 99.1311 81.0677 96.7705 78.622 94.3729C78.0113 93.7742 77.4006 93.1755 76.7898 92.5767C75.563 91.3344 74.3363 90.0948 73.1095 88.8525C73.0117 88.7549 72.9138 88.6546 72.8187 88.5571C72.66 88.3962 72.4908 88.2827 72.319 88.1878C71.7611 87.6392 71.2006 87.0906 70.6427 86.5419C68.7893 84.722 65.9339 87.568 67.7873 89.3905C69.8363 91.4004 71.8854 93.4129 73.9344 95.4227C76.3721 97.8888 78.8098 100.355 81.2474 102.824C82.0618 103.649 82.9025 104.615 83.8094 105.496C83.9945 105.973 84.0447 106.472 83.9469 106.954C83.7036 108.162 82.8814 108.906 81.6969 109.194C80.248 109.547 78.6802 109.296 77.3583 108.518C76.3324 107.914 75.5128 106.93 74.68 106.089C73.2946 104.689 71.9118 103.288 70.5264 101.887C67.9486 99.2815 65.3734 96.6729 62.7956 94.067C61.1907 92.4449 58.798 94.4415 59.4748 96.2061C59.4695 96.6676 59.6387 97.145 60.0697 97.5671C64.1572 101.579 68.3452 105.509 72.3428 109.61C73.8947 111.203 73.1756 113.704 71.1556 114.284C69.0405 114.891 66.8434 114.221 65.2412 112.617C63.0415 110.412 60.8629 108.189 58.6764 105.973C56.4528 103.723 54.2267 101.471 52.0031 99.2208C50.1762 97.3719 47.3234 100.22 49.1477 102.069C52.9946 105.962 56.8309 109.866 60.6857 113.749C56.8838 116.217 51.7837 114.682 48.5052 111.726C46.5593 109.972 44.616 108.215 42.6701 106.461C36.1819 100.608 29.6964 94.7527 23.2083 88.8999C21.725 87.5627 20.2418 86.2228 18.7586 84.8855C18.9648 83.1263 19.171 81.3696 19.3772 79.613C20.0276 74.0662 20.6807 68.5193 21.3311 62.9725C21.5294 61.2791 21.7277 59.5858 21.9286 57.8925H38.5668L42.0488 53.8649H22.1348C22.037 53.1395 21.8176 52.4274 21.3734 51.7205C20.4401 50.2461 18.9463 49.2517 17.2277 48.959C16.2971 48.8007 15.3638 48.6504 14.4331 48.4974C11.9478 48.0886 9.46256 47.6771 6.97993 47.2683C6.81072 47.2393 6.64151 47.2129 6.4723 47.1839C5.39887 47.0072 4.299 47.4635 3.98966 48.5897C3.72527 49.5524 4.31751 50.887 5.39887 51.0664C9.08977 51.6757 12.8309 52.1505 16.4954 52.9022C16.9739 52.9998 17.077 53.0182 17.471 53.3004C17.6666 53.4402 17.5318 53.3506 17.4974 53.3242C17.5794 53.3928 17.6613 53.4745 17.7327 53.5563C17.775 53.6038 17.7962 53.6249 17.8068 53.6354C17.8755 53.733 17.9416 53.8385 17.9998 53.9414C18.2218 54.3396 18.2536 54.7089 18.1954 55.3261C18.1663 55.6215 18.1267 55.9196 18.0923 56.215C17.8914 57.9268 17.6904 59.6412 17.4895 61.353C16.8655 66.6572 16.2442 71.964 15.6202 77.2682C15.3691 79.4099 15.1179 81.5516 14.8667 83.696C14.79 84.3396 14.716 84.9831 14.6393 85.6267C14.6208 85.7876 14.5997 85.9485 14.5838 86.1094C14.5759 86.1358 14.568 86.1542 14.5574 86.1938C14.2243 87.3095 13.5078 87.8027 12.3153 87.7526C11.4957 87.7183 10.6761 87.6576 9.85651 87.6075C7.41353 87.4651 4.9732 87.32 2.53022 87.1776C2.35837 87.167 2.18916 87.1565 2.01731 87.1486C0.928014 87.0853 0 88.1192 0 89.1611C0 90.3058 0.92537 91.1102 2.01731 91.1735V91.1656Z" fill="#3D6CAE"/>
<path d="M87.0562 76.2474C85.0098 77.3974 82.7757 78.1227 80.4781 78.5026L94.9535 93.7003L109.247 84.1206C110.145 83.572 110.64 82.5513 110.513 81.5068L106.745 50.771C106.581 49.4258 105.437 48.4156 104.078 48.4156H97.1586C94.4988 48.4156 91.8522 48.0754 89.2823 47.4001L87.08 46.8225C83.278 54.6166 75.259 60.0052 66.0001 60.0052C58.8879 60.0052 52.5082 56.8216 48.2092 51.8128C45.0523 54.5823 42.1863 57.6788 39.6667 61.0576L37.229 64.3255C36.2455 65.6443 35.8779 67.3192 36.2217 68.9281C36.7848 71.5657 39.1194 73.4516 41.8241 73.4516H43.4105C44.431 73.4516 45.4304 73.1799 46.3108 72.6656L53.7164 68.332C55.9135 67.0449 58.0366 65.6338 60.0724 64.1066L61.4895 63.0437C62.9067 61.9807 64.8975 62.1442 66.119 63.4288L76.9538 74.8047C77.1389 74.7994 77.3266 74.7994 77.5117 74.7915C78.1092 74.7651 78.7067 74.7176 79.2989 74.6385C79.3201 74.6306 79.8198 74.5515 79.8806 74.5409C80.0842 74.504 80.2878 74.4644 80.4887 74.4222C81.4088 74.227 82.3183 73.9659 83.1987 73.6362C83.2595 73.6125 83.6376 73.4569 83.6535 73.4516C83.7962 73.3883 83.9416 73.325 84.0818 73.2564C84.3964 73.1061 84.7084 72.9425 85.0124 72.7711C85.5782 72.4546 86.1017 72.0906 86.6332 71.7187C86.6437 71.7081 86.649 71.7055 86.6622 71.6923C86.7389 71.6264 86.8182 71.5631 86.8975 71.4971C87.08 71.3415 87.2598 71.1806 87.4316 71.0145C87.6616 70.7929 87.8731 70.5581 88.0899 70.3234C88.1613 70.2443 88.1904 70.2153 88.2036 70.2021C88.854 69.4847 89.8508 69.184 90.7656 69.7168C91.646 70.2311 92.1219 71.5842 91.49 72.4704C90.3611 74.053 88.7298 75.3005 87.0482 76.2448L87.0562 76.2474Z" fill="#3D6CAE"/>
</g>
<defs>
<clipPath id="clip0_8920_157">
<rect width="132" height="119" fill="white"/>
</clipPath>
</defs>
</svg>
