<svg width="108" height="119" viewBox="0 0 108 119" fill="none" xmlns="http://www.w3.org/2000/svg">
<g clip-path="url(#clip0_8920_167)">
<path d="M107.93 13.3333C107.817 12.5517 107.474 11.8031 106.896 11.2194C103.547 7.84164 100.197 4.4639 96.8508 1.08869C95.4115 -0.362898 92.9606 -0.362898 91.5239 1.08869C90.0795 2.54536 90.0795 5.00697 91.5239 6.4611C92.7291 7.67668 93.9344 8.89226 95.1397 10.1078H51.7671C44.7417 10.1078 37.822 10.8235 31.2345 13.4729C20.865 17.6475 12.0405 25.1516 6.47458 34.9549C0.75514 45.0171 -1.14211 56.8151 0.780302 68.2121C2.04094 75.6857 5.16613 82.8676 9.67525 88.9785C11.3662 87.2731 13.2433 85.3825 15.0676 83.5477C14.3228 82.4666 13.6232 81.3525 12.9741 80.208C12.3702 79.1422 11.8065 78.0535 11.2882 76.9419C11.1473 76.6374 11.0139 76.3303 10.873 76.0258C10.8403 75.9522 10.8126 75.8938 10.7899 75.8482C10.7723 75.805 10.7547 75.7543 10.7296 75.6934C10.483 75.064 10.2389 74.4372 10.0124 73.8002C9.09903 71.2218 8.42216 68.5572 7.98685 65.852C7.9491 65.6236 7.91639 65.3952 7.88116 65.1668C7.8711 65.0983 7.86103 65.0424 7.85348 64.9942C7.84845 64.9409 7.84342 64.8749 7.83587 64.7937C7.76793 64.0933 7.69244 63.398 7.64463 62.6976C7.55657 61.3957 7.52134 60.0913 7.54147 58.7869C7.5616 57.4901 7.63457 56.1959 7.7629 54.9041C7.78554 54.6631 7.81574 54.422 7.84342 54.1834C7.85097 54.1504 7.92394 53.5617 7.934 53.4931C8.03969 52.8105 8.15795 52.1278 8.29383 51.4503C8.80714 48.8871 9.53937 46.3722 10.4804 43.936C10.5685 43.7076 10.6616 43.4817 10.7522 43.2559C10.8076 43.1341 10.9837 42.723 11.0063 42.6697C11.258 42.1088 11.5197 41.5531 11.7939 41.0024C12.4129 39.7563 13.0898 38.5408 13.8195 37.3582C14.4586 36.3228 15.1405 35.3102 15.8602 34.3306C15.8501 34.3433 16.0464 34.0845 16.1672 33.9221C16.293 33.7647 16.4918 33.5084 16.4817 33.5211C16.9648 32.9196 17.463 32.3284 17.9764 31.7523C19.6673 29.8515 21.5192 28.136 23.4744 26.5194C23.5322 26.4712 23.5775 26.4332 23.6153 26.4027C23.653 26.3748 23.6983 26.3418 23.7537 26.3012C24.0204 26.1033 24.2821 25.9053 24.5513 25.7099C24.9992 25.3876 25.4521 25.0704 25.9101 24.7633C27.0122 24.0248 28.147 23.3346 29.3096 22.6976C30.3815 22.1088 31.4836 21.5861 32.5907 21.0684C32.6637 21.0354 32.7216 21.0075 32.7669 20.9846C32.8097 20.9669 32.86 20.9491 32.9179 20.9237C33.2299 20.7994 33.5394 20.6725 33.8514 20.5507C34.5308 20.2893 35.2177 20.0431 35.9097 19.8147C38.3454 19.0103 40.8566 18.4113 43.398 18.0459C43.5012 18.0358 44.0095 17.9723 44.0724 17.9672C44.3039 17.9419 44.5329 17.919 44.7644 17.8962C45.4614 17.8302 46.1584 17.782 46.8579 17.749C47.5826 17.716 48.3047 17.7008 49.0294 17.7008C49.4119 17.7008 49.7918 17.7008 50.1743 17.7008H95.1347C93.9294 18.9164 92.7241 20.1319 91.5188 21.3475C90.0795 22.7991 90.0795 25.2709 91.5188 26.7199C92.9632 28.1766 95.4039 28.1766 96.8457 26.7199C100.195 23.3422 103.544 19.9644 106.891 16.5892C107.054 16.4243 107.195 16.2467 107.321 16.0589C107.766 15.4396 108.028 14.6936 107.993 13.9018C107.985 13.7064 107.957 13.516 107.925 13.3308L107.93 13.3333Z" fill="#3D6CAE"/>
<path d="M98.3145 30.0037L92.9247 35.4395C93.672 36.5257 94.374 37.6448 95.0257 38.7919C95.6296 39.8577 96.1933 40.9464 96.7116 42.058C96.8525 42.3625 96.9859 42.6696 97.1268 42.9741C97.1595 43.0477 97.1872 43.106 97.2098 43.1517C97.2274 43.1949 97.2451 43.2456 97.2702 43.3065C97.5168 43.9359 97.7609 44.5627 97.9874 45.1997C98.9008 47.778 99.5776 50.4427 100.013 53.1479C100.051 53.3763 100.083 53.6047 100.119 53.8331C100.129 53.9016 100.139 53.9574 100.146 54.0057C100.151 54.059 100.156 54.1249 100.164 54.2062C100.232 54.9066 100.307 55.6019 100.355 56.3023C100.443 57.6042 100.478 58.9086 100.458 60.213C100.438 61.5098 100.365 62.804 100.237 64.0957C100.214 64.3368 100.184 64.5779 100.156 64.8165C100.149 64.8495 100.076 65.4382 100.066 65.5067C99.9601 66.1894 99.8418 66.872 99.706 67.5496C99.1926 70.1127 98.4604 72.6277 97.5193 75.0639C97.4313 75.2923 97.3407 75.5181 97.2476 75.744C97.1922 75.8658 97.0161 76.2769 96.9934 76.3302C96.7418 76.8911 96.4801 77.4468 96.2058 77.9975C95.5869 79.2436 94.91 80.4591 94.1803 81.6417C93.5411 82.6771 92.8592 83.6897 92.1396 84.6693C92.1497 84.6566 91.9534 84.9154 91.8326 85.0778C91.7068 85.2352 91.508 85.4915 91.5181 85.4763C91.035 86.0777 90.5367 86.669 90.0234 87.2451C88.3325 89.1458 86.4805 90.8614 84.5254 92.4779C84.4675 92.5261 84.4222 92.5642 84.3845 92.5946C84.3468 92.6226 84.3015 92.6555 84.2461 92.6961C83.9794 92.8941 83.7177 93.092 83.4485 93.2874C83.0006 93.6097 82.5476 93.927 82.0897 94.2315C80.9876 94.97 79.8527 95.6602 78.6902 96.2972C77.6183 96.886 76.5162 97.4087 75.409 97.9264C75.3361 97.9594 75.2782 97.9873 75.2329 98.0102C75.1901 98.0279 75.1398 98.0457 75.0794 98.0711C74.7674 98.1954 74.4579 98.3223 74.1459 98.4441C73.4665 98.7055 72.7796 98.9517 72.0876 99.1801C69.6519 99.9846 67.1381 100.583 64.5992 100.949C64.4935 100.959 63.9878 101.022 63.9249 101.028C63.6934 101.053 63.4644 101.076 63.2329 101.099C62.5359 101.165 61.8389 101.213 61.1394 101.246C60.4147 101.279 59.6925 101.294 58.9679 101.294C58.5854 101.294 58.2054 101.294 57.823 101.294H12.8651C14.0704 100.078 15.2757 98.8629 16.481 97.6473C17.9203 96.1957 17.9203 93.7239 16.481 92.2749C15.0366 90.8182 12.5959 90.8182 11.1541 92.2749C7.80493 95.6526 4.4558 99.0304 1.10918 102.406C0.945626 102.571 0.804717 102.748 0.678904 102.936C0.233528 103.555 -0.0281626 104.299 0.00706495 105.093C0.0146137 105.288 0.0422925 105.479 0.0750037 105.664C0.188235 106.446 0.530445 107.194 1.10918 107.778C4.45831 111.156 7.80744 114.533 11.1541 117.909C12.5934 119.36 15.0442 119.36 16.481 117.909C17.9253 116.452 17.9253 113.99 16.481 112.536C15.2757 111.321 14.0704 110.105 12.8651 108.89H56.2377C63.2631 108.89 70.1828 108.174 76.7703 105.524C87.1398 101.35 95.9643 93.8457 101.53 84.0424C107.245 73.9803 109.142 62.1823 107.217 50.7853C105.954 43.304 102.826 36.1171 98.312 30.0037H98.3145Z" fill="#3D6CAE"/>
<path d="M53.9732 23.4971C34.198 23.4971 18.167 39.6651 18.167 59.6092C18.167 79.5534 34.198 95.7213 53.9732 95.7213C73.7485 95.7213 89.7795 79.5534 89.7795 59.6092C89.7795 39.6651 73.7485 23.4971 53.9732 23.4971ZM46.9378 52.2523C47.0108 52.6329 47.1139 53.0111 47.2423 53.3765C47.4109 53.7242 47.6096 54.0668 47.8311 54.3891C48.0751 54.6733 48.3419 54.9448 48.6262 55.191C48.9458 55.4143 49.2855 55.6123 49.6302 55.7823C49.9925 55.9117 50.3675 56.0158 50.7449 56.0893C50.9563 56.1046 51.1676 56.1147 51.3664 56.1147H56.3662C57.267 56.1147 58.1804 56.2086 59.0837 56.3939C59.5794 56.4954 60.0726 56.6477 60.5507 56.8431C61.1622 57.0943 61.9246 57.4064 62.604 57.8429C62.9185 58.0459 63.2104 58.2718 63.4922 58.4926L63.5778 58.5586C63.8445 58.7667 64.1188 58.9798 64.3754 59.2184C64.9642 59.7615 65.4398 60.3984 65.86 60.9593C66.162 61.3628 66.4262 61.7866 66.6451 62.2231C66.8866 62.7027 67.0854 63.2052 67.2616 63.6493C67.3547 63.8828 67.4377 64.1239 67.5082 64.3675C67.7195 65.0882 67.8227 65.8216 67.9133 66.7047C67.9661 67.2224 67.9711 67.7478 67.9284 68.2629C67.8504 69.2095 67.7296 69.9556 67.5509 70.6103C67.3748 71.2524 67.1106 71.9376 66.713 72.7649C66.4966 73.2191 66.2349 73.6556 65.938 74.0642C65.5153 74.6454 65.0548 75.2569 64.5038 75.7899C63.998 76.2771 63.4042 76.7517 62.7323 77.2034C62.3222 77.48 61.8768 77.7211 61.4088 77.9241C60.7218 78.221 60.0122 78.5306 59.2398 78.7032C58.7944 78.8047 58.3415 78.8605 57.9011 78.9164L57.6872 78.9443C57.6143 78.9544 57.5388 78.9621 57.4658 78.9697L57.4985 82.2561C57.5061 83.1367 57.1588 83.9868 56.492 84.7202C56.0517 85.1618 55.5384 85.4612 54.9571 85.6287L54.937 85.6338L54.0764 85.7505C54.011 85.7556 53.9732 85.7556 53.938 85.7556C53.5002 85.7556 53.085 85.6541 52.7 85.4561C52.2697 85.3115 51.8923 85.0628 51.5778 84.7227C51.2557 84.4207 51.0116 84.0426 50.8657 83.6087C50.6518 83.1899 50.5537 82.7332 50.5713 82.2484L50.5386 78.9798C50.4807 78.9747 50.4228 78.9697 50.3649 78.9621C49.6881 78.8808 48.8451 78.7819 48.055 78.5332C47.358 78.3149 46.6535 78.018 45.959 77.6551C45.2645 77.2897 44.6606 76.8126 44.0743 76.3507C43.6818 76.0411 43.3194 75.7011 42.9974 75.3407C42.4639 74.7418 42.006 74.1302 41.6336 73.5237C41.2209 72.8537 40.9265 72.1279 40.6598 71.4427C40.471 70.9631 40.3301 70.4606 40.2345 69.9531C40.0634 69.0344 39.9829 68.2756 39.9804 67.5676C39.9804 66.6819 40.3251 65.8318 40.9869 65.106C41.4272 64.6644 41.9405 64.3624 42.5218 64.1974L42.5419 64.1924L43.4025 64.0756C43.4704 64.0706 43.5056 64.0706 43.5434 64.0706C43.9812 64.0706 44.3964 64.1721 44.7789 64.37C45.2091 64.5147 45.5841 64.7608 45.9011 65.1034C46.2232 65.4054 46.4673 65.7861 46.6132 66.2175C46.8271 66.6362 46.9252 67.093 46.9076 67.5752C46.9076 67.7579 46.9152 67.9533 46.9328 68.1665C47.0057 68.5471 47.1089 68.9278 47.2372 69.2932C47.4058 69.6434 47.6046 69.9835 47.826 70.3058C48.0701 70.59 48.3368 70.8616 48.6212 71.1077C48.9407 71.3311 49.2804 71.529 49.6252 71.699C49.985 71.8285 50.3549 71.93 50.7273 72.0036C51.0695 72.0289 51.4092 72.0315 51.7262 72.0315H53.9707C53.9934 72.0315 54.0261 72.0315 54.0588 72.0315C54.094 72.0315 54.1292 72.0315 54.162 72.0315H54.9772C55.171 72.0315 55.3647 72.0315 55.5585 72.0365C55.7522 72.0365 55.946 72.0416 56.1397 72.0416C56.5675 72.0416 56.8971 72.0315 57.2016 72.0061C57.5765 71.9325 57.9514 71.8285 58.3138 71.699C58.6585 71.529 58.9982 71.3311 59.3178 71.1077C59.5996 70.8616 59.8688 70.5926 60.1129 70.3058C60.3343 69.981 60.5331 69.6409 60.6992 69.2932C60.8275 68.9278 60.9307 68.5497 61.0037 68.169C61.0338 67.7681 61.0338 67.362 61.0037 66.9636C60.9307 66.5829 60.8275 66.2048 60.6992 65.8394C60.5306 65.4917 60.3343 65.1516 60.1129 64.8268C59.8688 64.5426 59.6021 64.271 59.3178 64.0249C58.9982 63.8016 58.6585 63.6036 58.3138 63.4336C57.9514 63.3042 57.5765 63.2001 57.1991 63.1265C56.9802 63.1088 56.7763 63.1011 56.5776 63.1011H51.5778C50.677 63.1011 49.7636 63.0072 48.8577 62.822C48.3645 62.7205 47.8688 62.5708 47.3907 62.3728C46.6107 62.0531 45.964 61.7764 45.3375 61.3729C45.0255 61.1725 44.7336 60.9441 44.4518 60.7233L44.3662 60.6573C44.0995 60.4492 43.8252 60.236 43.566 59.9975C42.9772 59.4544 42.5017 58.8174 42.0789 58.2566C41.777 57.8531 41.5128 57.4293 41.2939 56.9928C41.0523 56.5132 40.8535 56.0107 40.6774 55.5666C40.5843 55.3331 40.5012 55.092 40.4308 54.8484C40.2194 54.1277 40.1163 53.3943 40.0257 52.5111C39.9728 51.9934 39.9678 51.4681 40.0106 50.9504C40.0886 50.0064 40.2093 49.2603 40.388 48.603C40.5641 47.9584 40.8309 47.2758 41.2259 46.4485C41.4423 45.9942 41.704 45.5577 42.0009 45.1491C42.4237 44.568 42.8841 43.9564 43.4352 43.4235C43.9384 42.9362 44.5348 42.4616 45.2066 42.0099C45.6168 41.7333 46.0622 41.4922 46.5302 41.2892C47.2171 40.9923 47.9267 40.6827 48.6992 40.5076C49.1446 40.4061 49.6 40.3477 50.0403 40.2919L50.2492 40.264C50.3448 40.2513 50.4404 40.2411 50.536 40.2335L50.5033 36.9547C50.4958 36.0741 50.843 35.224 51.5098 34.4906C51.9502 34.049 52.4635 33.747 53.0447 33.5821L53.0649 33.577L53.9254 33.4603C53.9909 33.4552 54.0286 33.4552 54.0663 33.4552C54.5042 33.4552 54.9194 33.5567 55.3043 33.7546C55.7346 33.8993 56.1121 34.148 56.4266 34.488C56.7487 34.79 56.9927 35.1682 57.1387 35.6021C57.3526 36.0208 57.4507 36.4776 57.4331 36.9598L57.4658 40.236C57.501 40.2386 57.5388 40.2437 57.574 40.2487C58.2509 40.3299 59.0938 40.4289 59.8839 40.6776C60.5809 40.8959 61.2855 41.1928 61.98 41.5557C62.6744 41.9211 63.2783 42.3982 63.8646 42.8601C64.2572 43.1697 64.6195 43.5097 64.9416 43.8701C65.475 44.469 65.933 45.0806 66.3054 45.6871C66.7181 46.3596 67.0125 47.0829 67.2792 47.7681C67.4654 48.2477 67.6088 48.7476 67.7044 49.2552C67.8755 50.1764 67.956 50.9326 67.9586 51.6407C67.9611 52.5264 67.6138 53.3765 66.9521 54.1023C66.5117 54.5439 65.9984 54.8459 65.4172 55.0108L65.397 55.0159L64.5365 55.1326C64.471 55.1377 64.4333 55.1377 64.3956 55.1377C63.9577 55.1377 63.5425 55.0362 63.1601 54.8382C62.7298 54.6936 62.3524 54.4474 62.0378 54.1048C61.7157 53.8028 61.4717 53.4222 61.3257 52.9908C61.1118 52.572 61.0137 52.1152 61.0313 51.6331C61.0313 51.4529 61.0213 51.2499 61.0062 51.0443C60.9332 50.6636 60.83 50.2855 60.7017 49.9175C60.5331 49.5699 60.3368 49.2298 60.1154 48.905C59.8713 48.6208 59.6046 48.3492 59.3203 48.1031C59.0007 47.8797 58.6635 47.6818 58.3163 47.5118C57.959 47.3823 57.5891 47.2808 57.2142 47.2072C56.872 47.1819 56.5323 47.1793 56.2152 47.1793H54.0361C54.016 47.1793 53.9833 47.1793 53.9506 47.1793C53.9154 47.1793 53.8801 47.1793 53.8449 47.1793H52.9617C52.768 47.1793 52.5742 47.1793 52.3805 47.1742C52.1867 47.1742 51.993 47.1692 51.7992 47.1692C51.3714 47.1692 51.0418 47.1793 50.7373 47.2047C50.3624 47.2783 49.9875 47.3823 49.6252 47.5118C49.2779 47.6818 48.9407 47.8823 48.6212 48.1031C48.3394 48.3492 48.0701 48.6182 47.826 48.905C47.6046 49.2273 47.4083 49.5699 47.2398 49.9175C47.1114 50.283 47.0083 50.6611 46.9353 51.0418C46.9051 51.4427 46.9051 51.8488 46.9353 52.2472L46.9378 52.2523Z" fill="#00AB4E"/>
</g>
<defs>
<clipPath id="clip0_8920_167">
<rect width="108" height="119" fill="white"/>
</clipPath>
</defs>
</svg>
