<svg width="122" height="113" viewBox="0 0 122 113" fill="none" xmlns="http://www.w3.org/2000/svg">
<path d="M12.8089 96.7296V13.741H2.53222C1.13211 13.741 0 14.8731 0 16.2677V110.471C0 111.868 1.13462 112.997 2.53222 112.997H66.8947C68.2949 112.997 69.427 111.865 69.427 110.471V102.248H18.3392C15.2885 102.248 12.8064 99.7712 12.8064 96.7271L12.8089 96.7296Z" fill="#3D6CAE"/>
<path d="M121.597 26.0449C121.214 25.2376 120.632 24.6278 119.944 24.0855C118.766 23.1557 117.587 22.226 116.41 21.2938C113.825 19.2543 111.247 17.2024 108.658 15.173C107.4 14.1883 105.82 13.9084 104.294 14.3782C103.435 14.6432 102.684 15.2205 102.125 15.9178C101.882 16.2202 101.645 16.5251 101.404 16.83C100.134 18.4321 98.8644 20.0316 97.5945 21.6337C95.5557 24.2029 93.5194 26.7722 91.4806 29.3414C88.991 32.483 86.4988 35.6221 84.0092 38.7637C81.3843 42.0728 78.7594 45.3843 76.1345 48.6934C73.6824 51.785 71.2303 54.8766 68.7783 57.9682C66.8447 60.405 64.9111 62.8443 62.9775 65.2811C61.8679 66.6807 60.7583 68.0803 59.6487 69.4774C59.5035 69.6623 59.3557 69.8473 59.2104 70.0297C58.9549 70.3522 58.8347 70.772 58.8523 71.1844C58.8523 71.2219 58.8498 71.2569 58.8523 71.2944C58.8823 73.1264 58.9124 74.9558 58.9424 76.7878C58.99 79.6945 59.0376 82.5986 59.0852 85.5053C59.0952 86.1751 59.1077 86.8449 59.1178 87.5147C59.1328 88.382 60.1822 89.2067 61.0263 89.0218C63.8741 88.3995 66.7219 87.7771 69.5697 87.1548C71.3957 86.7549 73.2216 86.3575 75.0475 85.9577C75.5659 85.8452 76.0819 85.7327 76.6003 85.6178C77.1564 85.4953 77.6699 85.3703 78.0706 84.8955C78.7769 84.0582 79.4356 83.176 80.1144 82.3162C81.76 80.2418 83.4055 78.1649 85.0511 76.0905C87.3254 73.2238 89.5971 70.3572 91.8713 67.4905C94.4586 64.2264 97.0485 60.9649 99.6358 57.7008C102.233 54.4267 104.828 51.1527 107.425 47.8786C108.244 46.8439 109.066 45.8117 109.885 44.777C110.07 44.672 110.236 44.5321 110.366 44.3546C110.481 44.1947 110.569 44.0222 110.626 43.8423C111.819 42.3402 113.011 40.8381 114.2 39.3336C114.932 38.4113 115.661 37.4916 116.392 36.5694C117.276 35.4547 118.163 34.3375 119.047 33.2228C119.701 32.4006 120.364 31.5833 121.006 30.751C122.025 29.4314 122.323 27.5695 121.594 26.0374L121.597 26.0449ZM108.648 40.8106L108.487 40.6832C107.2 39.666 105.91 38.6488 104.623 37.6316C103.07 36.4069 101.519 35.1798 99.9664 33.9551C98.6239 32.8954 97.2814 31.8332 95.9389 30.7735C95.6935 30.5786 95.448 30.3836 95.205 30.1862C96.53 28.5142 97.8575 26.8422 99.1825 25.1701C99.2651 25.2351 99.3478 25.3026 99.4329 25.3676C100.72 26.3848 102.01 27.402 103.298 28.4192C104.851 29.6439 106.401 30.871 107.954 32.0956C109.296 33.1553 110.639 34.2175 111.981 35.2772C112.197 35.4472 112.412 35.6196 112.628 35.7921C111.748 36.9018 110.869 38.009 109.99 39.1186C109.544 39.681 109.096 40.2458 108.65 40.8081L108.648 40.8106Z" fill="#00AB4E"/>
<path d="M82.7715 84.4182C82.5536 84.6931 82.3357 84.9731 82.1178 85.253C81.6544 85.8478 81.176 86.4626 80.6626 87.0725C79.5079 88.4446 78.0327 88.767 77.3239 88.9219L61.7498 92.3234C61.4317 92.3934 61.1061 92.4284 60.778 92.4284C58.1306 92.4284 55.7737 90.1591 55.7311 87.5723L55.4631 71.352C55.4631 71.292 55.4631 71.237 55.4631 71.182C55.4581 70.8546 55.4881 70.5297 55.5432 70.2098H31.8491C30.5892 70.2098 29.655 69.1801 29.5999 67.9655C29.5448 66.7533 30.6719 65.7211 31.8491 65.7211C31.8691 65.7211 31.8891 65.7211 31.9092 65.7211C33.417 65.6986 34.9273 65.7211 36.4351 65.7211H58.3084L64.0917 58.4282H32.0043C30.7445 58.4282 29.8103 57.401 29.7552 56.1838C29.7 54.9717 30.8272 53.9395 32.0043 53.9395C32.0244 53.9395 32.0444 53.9395 32.0645 53.9395C33.5723 53.917 35.0826 53.9395 36.5904 53.9395H67.6558L85.2311 31.7759V2.52677C85.2311 1.12967 84.0965 0 82.6989 0H18.3389C16.9413 0 15.8066 1.13217 15.8066 2.52677V96.7297C15.8066 98.1268 16.9413 99.2565 18.3389 99.2565H82.7014C84.1015 99.2565 85.2336 98.1243 85.2336 96.7297V81.3141L82.7715 84.4182ZM39.3581 16.0129C39.3706 16.0129 39.3831 16.0129 39.3956 16.0129C40.3073 15.9954 41.219 16.0129 42.1282 16.0129H61.8325C63.0923 16.0129 64.0266 17.0401 64.0817 18.2572C64.1368 19.4694 63.0097 20.5016 61.8325 20.5016C61.8199 20.5016 61.8074 20.5016 61.7949 20.5016C60.8832 20.5191 59.9715 20.5016 59.0623 20.5016H39.3581C38.0982 20.5016 37.164 19.4744 37.1089 18.2572C37.0538 17.0451 38.1809 16.0129 39.3581 16.0129ZM32.0043 29.7989C32.0244 29.7989 32.0444 29.7989 32.0645 29.7989C33.5723 29.7764 35.0826 29.7989 36.5904 29.7989H69.1837C70.4435 29.7989 71.3778 30.8261 71.4329 32.0433C71.488 33.2554 70.3609 34.2876 69.1837 34.2876C69.1636 34.2876 69.1436 34.2876 69.1236 34.2876C67.6158 34.3101 66.1054 34.2876 64.5976 34.2876H32.0043C30.7445 34.2876 29.8103 33.2604 29.7552 32.0433C29.7 30.8311 30.8272 29.7989 32.0043 29.7989ZM32.0043 42.1579C32.0244 42.1579 32.0444 42.1579 32.0645 42.1579C33.5723 42.1354 35.0826 42.1579 36.5904 42.1579H69.1837C70.4435 42.1579 71.3778 43.1851 71.4329 44.4022C71.488 45.6144 70.3609 46.6466 69.1837 46.6466C69.1636 46.6466 69.1436 46.6466 69.1236 46.6466C67.6158 46.6691 66.1054 46.6466 64.5976 46.6466H32.0043C30.7445 46.6466 29.8103 45.6194 29.7552 44.4022C29.7 43.1901 30.8272 42.1579 32.0043 42.1579ZM49.4469 83.2436H32.0069C30.747 83.2436 29.8128 82.2164 29.7577 80.9992C29.7026 79.787 30.8297 78.7548 32.0069 78.7548H49.4469C50.7067 78.7548 51.641 79.7821 51.6961 80.9992C51.7512 82.2114 50.6241 83.2436 49.4469 83.2436Z" fill="#3D6CAE"/>
</svg>
