<svg xmlns="http://www.w3.org/2000/svg" fill="none" viewBox="0 0 125 119">
  <path fill="#3D6CAE" d="M47.5 60.9a15 15 0 0 1 14.8-15c8.2 0 14.8 6.7 14.8 15 0 2.5-.2 5-.7 7.4l-.8 4a13.6 13.6 0 0 1-26.6 0l-.8-4c-.5-2.5-.7-5-.7-7.4Zm42.1 50.7a54 54 0 0 1-54.6 0 4 4 0 0 1-2-3.7l.4-4.5c.7-8.4 7.2-15.2 15.6-16.2l8.5-1c3.2-.3 6.4-.3 9.6 0l8.5 1c8.4 1 15 7.8 15.6 16.2l.4 4.5a4 4 0 0 1-2 3.7ZM13 61.4c0-7.4 6-13.5 13.3-13.5 7.4 0 13.4 6 13.4 13.5A34 34 0 0 1 39 68l-.7 3.6a12.2 12.2 0 0 1-24 0l-.7-3.6a34 34 0 0 1-.6-6.6Z"/>
  <path fill="#3D6CAE" d="m29 107.6.3-4.5c.6-7.6 5.1-14.1 11.5-17.5a10 10 0 0 0-2.5-.5l-7.6-1c-3-.2-5.8-.2-8.7 0l-7.7 1c-7.5.8-13.4 7-14 14.5l-.3 4c-.1 1.4.6 2.7 1.7 3.4 9 5.2 19.2 7.3 29.2 6.4a8.1 8.1 0 0 1-2-5.8Zm83-46.2a34 34 0 0 1-.6 6.6l-.8 3.6a12.2 12.2 0 0 1-23.9 0L86 68a34 34 0 0 1-.7-6.6 13.4 13.4 0 1 1 26.7 0Zm-16 46.2-.3-4.5a22 22 0 0 0-11.5-17.5 10 10 0 0 1 2.5-.5l7.6-1c3-.2 5.8-.2 8.7 0l7.7 1c7.5.8 13.4 7 14 14.5l.3 4c.1 1.4-.6 2.7-1.7 3.4-9 5.2-19.2 7.3-29.2 6.4a8.2 8.2 0 0 0 2-5.8Z"/>
  <path fill="#00AB4E" d="M62.6 0a18.4 18.4 0 0 0-18.3 18.4c0 10.2 8.2 18.5 18.3 18.5 10.1 0 18.3-8.3 18.3-18.5A18.3 18.3 0 0 0 62.6 0ZM72 13.6l-9.7 12a2 2 0 0 1-2.7.3l-6.3-5.1a1 1 0 0 1-.1-1.4l1.4-1.8a1 1 0 0 1 1.3 0l4.6 3.6L68.8 11a1 1 0 0 1 1.3-.1l1.8 1.4c.4.3.5 1 .1 1.4Z"/>
</svg>

