<svg width="274" height="75" viewBox="0 0 274 75" fill="none" xmlns="http://www.w3.org/2000/svg">
<path d="M179.53 50.79H5.39L0 58.67H94.27H99.01H173.63L179.53 50.79Z" fill="url(#paint0_radial_8908_669)"/>
<path d="M154 0C154 0 135.95 0.8 126.12 13.01C123.79 15.91 120.77 20 117.52 24.56L179.52 24.52L165.67 5.97H187.94L209.42 38.05L195.35 58.68H209.22L250.9 0H154Z" fill="url(#paint1_radial_8908_669)"/>
<path d="M179.53 24.51L173.37 16.27H158.78L152.91 24.53L179.53 24.51Z" fill="#4EB748"/>
<path d="M194.84 16.27L209.42 38.05L188.08 69.34H165.67L179.52 50.79H134.25L117.09 74.95H213.99C213.99 74.95 232.04 74.15 241.87 61.94C251.69 49.73 273.73 16.28 273.73 16.28H194.84V16.27Z" fill="#4EB748"/>
<path d="M28.3199 36.87L26.3299 48.8H24.2699L23.6899 45.84C22.1499 47.9 20.1299 48.93 17.6499 48.93C15.3599 48.93 13.4099 48.11 11.8199 46.48C10.2299 44.85 9.42993 42.54 9.42993 39.58C9.42993 35.81 10.4399 32.64 12.4699 30.09C14.4999 27.53 17.0999 26.26 20.2799 26.26C22.5899 26.26 24.4799 26.89 25.9299 28.16C27.3799 29.42 28.2999 31.2 28.6899 33.48L23.9599 34.25C23.5699 31.62 22.3399 30.31 20.2499 30.31C18.9599 30.31 17.8999 30.81 17.0499 31.81C16.1999 32.81 15.5799 34.16 15.1899 35.85C14.7999 37.54 14.5999 38.95 14.5999 40.08C14.5999 41.41 14.9199 42.52 15.5599 43.42C16.1999 44.32 17.2299 44.77 18.6699 44.77C20.7899 44.78 22.2199 43.47 22.9499 40.85H18.4299L19.0899 36.88H28.3199V36.87Z" fill="#4072B8"/>
<path d="M38.7599 48.97C36.1699 48.97 34.0799 48.1 32.4999 46.35C30.9199 44.6 30.1299 42.29 30.1299 39.42C30.1299 35.95 31.0699 32.9 32.9399 30.27C34.8099 27.64 37.3099 26.33 40.4199 26.33C43.0899 26.33 45.2099 27.21 46.7799 28.98C48.3499 30.75 49.1299 33.09 49.1299 36C49.1299 39.53 48.1999 42.57 46.3299 45.12C44.4699 47.68 41.9399 48.95 38.7599 48.95V48.97ZM38.8399 44.92C40.7299 44.92 42.0799 43.84 42.8899 41.67C43.6999 39.5 44.1099 37.38 44.1099 35.3C44.1099 32.03 42.8799 30.39 40.4299 30.39C38.6799 30.39 37.3699 31.41 36.4899 33.45C35.6099 35.49 35.1699 37.73 35.1699 40.16C35.1699 43.34 36.3899 44.92 38.8399 44.92Z" fill="#4072B8"/>
<path d="M65.5701 26.69L62.6001 44.47H71.2401L70.5501 48.63H56.8701L60.5401 26.69H65.5801H65.5701Z" fill="#4072B8"/>
<path d="M91.1 26.69L90.39 30.85H80.07L79.32 35.35H87.95L87.29 39.32H78.66L77.8 44.46H88.3L87.59 48.62H71.97L75.64 26.68H91.1V26.69Z" fill="#4072B8"/>
<path d="M107.97 48.63H102.75L102.04 43.81H94.6801L92.5701 48.63H87.8201L98.2701 26.69H104.27L107.97 48.63ZM96.3501 39.99H101.48L100.2 31.21L96.3501 39.99Z" fill="#4072B8"/>
<path d="M126.5 32.08L122 33.12C121.49 31.3 120.24 30.39 118.25 30.39C117.33 30.39 116.6 30.61 116.06 31.05C115.52 31.49 115.25 32.02 115.25 32.64C115.25 33.26 115.47 33.73 115.91 34.05C116.35 34.37 117.19 34.69 118.43 35C120.22 35.45 121.63 35.92 122.66 36.42C123.69 36.92 124.48 37.61 125.03 38.51C125.58 39.4 125.86 40.49 125.86 41.78C125.86 43.85 125.1 45.58 123.58 46.96C122.06 48.35 119.89 49.04 117.09 49.04C114.69 49.04 112.69 48.49 111.1 47.38C109.51 46.27 108.52 44.6 108.13 42.37L112.82 41.73C113.3 43.91 114.79 44.99 117.27 44.99C118.4 44.99 119.26 44.75 119.86 44.27C120.46 43.79 120.76 43.18 120.76 42.44C120.76 41.7 120.53 41.22 120.08 40.91C119.62 40.59 118.57 40.21 116.91 39.76C115.4 39.36 114.2 38.92 113.3 38.44C112.41 37.96 111.69 37.28 111.16 36.39C110.63 35.51 110.36 34.5 110.36 33.36C110.36 31.51 111.06 29.87 112.47 28.46C113.87 27.05 115.81 26.34 118.27 26.34C122.51 26.34 125.26 28.25 126.5 32.08Z" fill="#4072B8"/>
<path d="M146.09 26.69L145.38 30.85H135.06L134.31 35.35H142.94L142.28 39.32H133.65L132.79 44.46H143.29L142.58 48.62H126.96L130.63 26.68H146.09V26.69Z" fill="#4072B8"/>
<path d="M160.74 26.69L157.08 48.63H152.03L155.69 26.69H160.74Z" fill="#4072B8"/>
<path d="M177.35 30.85H171.82L168.85 48.63H163.8L166.77 30.85H161.24L161.93 26.69H178.05L177.34 30.85H177.35Z" fill="#4072B8"/>
<path d="M179.53 24.51L173.37 16.27H158.78L152.91 24.53L179.53 24.51Z" fill="#00AB4E"/>
<path d="M194.84 16.27L209.42 38.05L195.35 58.67H209.22L239.35 16.27H194.84Z" fill="#00AB4E"/>
<path d="M179.53 50.79H134.26L128.66 58.67H173.63L179.53 50.79Z" fill="#00AB4E"/>
<defs>
<radialGradient id="paint0_radial_8908_669" cx="0" cy="0" r="1" gradientUnits="userSpaceOnUse" gradientTransform="translate(89.76 54.73) scale(63.53 63.53)">
<stop stop-color="#4DABE0"/>
<stop offset="1" stop-color="#3C61AD"/>
</radialGradient>
<radialGradient id="paint1_radial_8908_669" cx="0" cy="0" r="1" gradientUnits="userSpaceOnUse" gradientTransform="translate(184.22 29.34) scale(51.52 51.52)">
<stop stop-color="#4DABE0"/>
<stop offset="1" stop-color="#3C61AD"/>
</radialGradient>
</defs>
</svg>
